<?xml version="1.0" encoding="UTF-8" standalone="no"?>
<!-- Created with Inkscape (http://www.inkscape.org/) -->

<svg
   xmlns:dc="http://purl.org/dc/elements/1.1/"
   xmlns:cc="http://creativecommons.org/ns#"
   xmlns:rdf="http://www.w3.org/1999/02/22-rdf-syntax-ns#"
   xmlns:svg="http://www.w3.org/2000/svg"
   xmlns="http://www.w3.org/2000/svg"
   xmlns:sodipodi="http://sodipodi.sourceforge.net/DTD/sodipodi-0.dtd"
   xmlns:inkscape="http://www.inkscape.org/namespaces/inkscape"
   width="128px"
   height="128px"
   viewBox="0 0 128 128"
   version="1.1"
   id="SVGRoot"
   inkscape:version="0.92.4 (33fec40, 2019-01-16)"
   sodipodi:docname="favicon.svg">
  <defs
     id="defs26" />
  <sodipodi:namedview
     id="base"
     pagecolor="#ffffff"
     bordercolor="#666666"
     borderopacity="1.0"
     inkscape:pageopacity="0.0"
     inkscape:pageshadow="2"
     inkscape:zoom="5.6568542"
     inkscape:cx="64.145031"
     inkscape:cy="69.341142"
     inkscape:document-units="px"
     inkscape:current-layer="layer1"
     showgrid="false"
     inkscape:window-width="1855"
     inkscape:window-height="1025"
     inkscape:window-x="65"
     inkscape:window-y="27"
     inkscape:window-maximized="1"
     inkscape:grid-bbox="true" />
  <metadata
     id="metadata29">
    <rdf:RDF>
      <cc:Work
         rdf:about="">
        <dc:format>image/svg+xml</dc:format>
        <dc:type
           rdf:resource="http://purl.org/dc/dcmitype/StillImage" />
        <dc:title></dc:title>
      </cc:Work>
    </rdf:RDF>
  </metadata>
  <g
     inkscape:label="Layer 1"
     inkscape:groupmode="layer"
     id="layer1">
    <path
       style="fill:#008000"
       d="M 63.992188 0.19140625 A 63.993164 63.993164 0 0 0 0 64.183594 A 63.993164 63.993164 0 0 0 63.994141 128.17773 A 63.993164 63.993164 0 0 0 127.98633 64.183594 A 63.993164 63.993164 0 0 0 63.992188 0.19140625 z M 31.587891 33.376953 C 34.47678 33.376953 37.643446 33.697049 41.087891 34.335938 C 44.532335 34.947049 48.199002 35.848524 52.087891 37.042969 L 52.087891 50.292969 L 47.380859 50.292969 C 46.908637 45.90408 45.435113 42.737413 42.962891 40.792969 C 40.518446 38.820746 36.783637 37.835938 31.755859 37.835938 C 27.36697 37.835938 24.018446 38.737413 21.712891 40.542969 C 19.435113 42.320747 18.296875 44.919271 18.296875 48.335938 C 18.296875 51.30816 19.158637 53.641493 20.880859 55.335938 C 22.603082 57.030382 26.254557 58.710286 31.837891 60.376953 L 39.546875 62.667969 C 45.185764 64.362413 49.199002 66.52908 51.587891 69.167969 C 54.004557 71.77908 55.212891 75.294271 55.212891 79.710938 C 55.212891 85.738715 53.282986 90.280382 49.421875 93.335938 C 45.560764 96.391493 39.810764 97.917969 32.171875 97.917969 C 28.755208 97.917969 25.268446 97.571398 21.712891 96.876953 C 18.185113 96.182509 14.588542 95.127604 10.921875 93.710938 L 10.921875 79.542969 L 15.712891 79.585938 C 15.85178 84.30816 17.213542 87.80816 19.796875 90.085938 C 22.407986 92.335938 26.366319 93.460938 31.671875 93.460938 C 36.61632 93.460938 40.379557 92.487413 42.962891 90.542969 C 45.574002 88.570746 46.880859 85.710938 46.880859 81.960938 C 46.880859 78.960937 46.089193 76.65408 44.505859 75.042969 C 42.950304 73.431858 39.643446 71.863715 34.587891 70.335938 L 26.380859 67.876953 C 20.436415 66.071398 16.24132 63.821398 13.796875 61.126953 C 11.380208 58.432509 10.171875 54.737413 10.171875 50.042969 C 10.171875 44.765191 12.046875 40.66862 15.796875 37.751953 C 19.546875 34.835286 24.810113 33.376953 31.587891 33.376953 z M 62.337891 34.501953 L 117.58789 34.501953 L 117.58789 49.167969 L 112.46289 49.167969 L 112.46289 39.460938 L 94.171875 39.460938 L 94.171875 92.292969 L 102.13086 92.292969 L 102.13086 96.710938 L 77.796875 96.710938 L 77.796875 92.292969 L 85.755859 92.292969 L 85.755859 39.460938 L 67.462891 39.460938 L 67.462891 49.167969 L 62.337891 49.167969 L 62.337891 34.501953 z "
       id="path39" />
  </g>
</svg>
